<svg height='100px' width='100px'  fill="#68217a" xmlns="http://www.w3.org/2000/svg" xmlns:xlink="http://www.w3.org/1999/xlink" xmlns:xodm="http://www.corel.com/coreldraw/odm/2003" xml:space="preserve" version="1.1" style="shape-rendering:geometricPrecision;text-rendering:geometricPrecision;image-rendering:optimizeQuality;" viewBox="0 0 846.66 846.66" x="0px" y="0px" fill-rule="evenodd" clip-rule="evenodd"><defs><style type="text/css">
   
    .fil0 {fill:#68217a;fill-rule:nonzero}
   
  </style></defs><g><path class="fil0" d="M312.43 291.54c-34.36,40.7 -73.02,118.06 -90.85,203.23 -20.9,99.84 -13.15,211.11 69.93,281.24 31.82,26.87 74.91,47.98 131.82,60.52 56.91,-12.54 100,-33.65 131.82,-60.52 83.08,-70.13 90.83,-181.4 69.93,-281.24 -17.83,-85.17 -56.49,-162.53 -90.85,-203.23l35.24 -29.82c38.38,45.47 81.35,130.78 100.79,223.66 24.39,116.51 11.61,243.08 -84.06,324.82 22.59,-8.75 43.09,-19.45 61.44,-31.82 103.7,-69.94 134.3,-189.42 101.34,-306.54 -51.04,-181.37 -242.16,-270.64 -325.65,-461.71 -83.49,191.07 -274.61,280.34 -325.65,461.71 -32.96,117.13 -2.36,236.6 101.34,306.54 18.35,12.38 38.85,23.07 61.45,31.82 -95.68,-81.74 -108.46,-208.3 -84.07,-324.82 19.44,-92.88 62.41,-178.19 100.79,-223.66l35.24 29.82z"></path></g></svg>